<svg width="20" height="20" viewBox="0 0 20 20" fill="none" xmlns="http://www.w3.org/2000/svg">
<path fill-rule="evenodd" clip-rule="evenodd" d="M0.0396968 9.37625C0.0396968 4.89672 4.50753 1.26709 10.0202 1.26709C15.5329 1.26709 20.0007 4.89672 20.0007 9.37625C20.0007 13.8558 15.5329 17.4854 10.0202 17.4854C8.74145 17.4854 7.52508 17.2827 6.39447 16.9279C5.25997 17.731 3.36913 18.733 0.971471 18.733C0.597202 18.733 0.261919 18.5108 0.113771 18.1677C-0.0343772 17.8246 0.0357982 17.4269 0.293108 17.154C0.312601 17.1384 1.52118 15.8363 2.10207 14.3002C0.815525 12.9318 0.0396968 11.232 0.0396968 9.37625ZM18.7532 9.37624C18.7532 5.59456 14.835 2.51464 10.0202 2.51464C5.20542 2.51464 1.28729 5.59456 1.28729 9.37624C1.28729 10.8421 1.88378 12.2495 3.01049 13.4425L3.5446 14.0117L3.2678 14.7408C2.83895 15.8792 2.14499 16.8655 1.67715 17.4542C3.39645 17.2866 4.78047 16.5458 5.67715 15.9104L6.18398 15.5517L6.77657 15.7388C7.8253 16.0702 8.91692 16.2378 10.0202 16.2378C14.835 16.2378 18.7532 13.1579 18.7532 9.37624Z" fill="#929292"/>
</svg>
