<svg width="20" height="20" viewBox="0 0 20 20" fill="none" xmlns="http://www.w3.org/2000/svg">
<path fill-rule="evenodd" clip-rule="evenodd" d="M0.3125 10C0.3125 4.64844 4.64844 0.3125 10 0.3125C15.3516 0.3125 19.6875 4.64844 19.6875 10C19.6875 15.3516 15.3516 19.6875 10 19.6875C4.64844 19.6875 0.3125 15.3516 0.3125 10ZM10 18.4375C14.6836 18.4375 18.4375 14.6367 18.4375 10C18.4375 5.31641 14.6367 1.5625 10 1.5625C5.31641 1.5625 1.5625 5.36328 1.5625 10C1.5625 14.6836 5.36328 18.4375 10 18.4375ZM7.08333 9.16667C8.23393 9.16667 9.16667 8.23393 9.16667 7.08333C9.16667 5.93274 8.23393 5 7.08333 5C5.93274 5 5 5.93274 5 7.08333C5 8.23393 5.93274 9.16667 7.08333 9.16667ZM9.16667 12.9167C9.16667 14.0673 8.23393 15 7.08333 15C5.93274 15 5 14.0673 5 12.9167C5 11.7661 5.93274 10.8333 7.08333 10.8333C8.23393 10.8333 9.16667 11.7661 9.16667 12.9167ZM12.9167 9.16667C14.0673 9.16667 15 8.23393 15 7.08333C15 5.93274 14.0673 5 12.9167 5C11.7661 5 10.8333 5.93274 10.8333 7.08333C10.8333 8.23393 11.7661 9.16667 12.9167 9.16667ZM15 12.9167C15 14.0673 14.0673 15 12.9167 15C11.7661 15 10.8333 14.0673 10.8333 12.9167C10.8333 11.7661 11.7661 10.8333 12.9167 10.8333C14.0673 10.8333 15 11.7661 15 12.9167Z" fill="#929292"/>
</svg>
