<svg width="40" height="40" viewBox="0 0 40 40" fill="none" xmlns="http://www.w3.org/2000/svg">
<mask id="mask0_64_36" style="mask-type:alpha" maskUnits="userSpaceOnUse" x="0" y="0" width="40" height="40">
<rect width="40" height="40" fill="#D9D9D9"/>
</mask>
<g mask="url(#mask0_64_36)">
<path d="M20 28.625C21.722 28.625 23.2983 28.1597 24.729 27.229C26.1597 26.2983 27.2223 25.0413 27.917 23.458H12.083C12.7777 25.0413 13.8403 26.2983 15.271 27.229C16.7017 28.1597 18.278 28.625 20 28.625ZM12.792 17.708L14.667 15.875L16.5 17.708L17.75 16.458L14.667 13.292L11.542 16.458L12.792 17.708ZM23.542 17.708L25.375 15.875L27.208 17.708L28.5 16.458L25.375 13.292L22.25 16.458L23.542 17.708ZM20 35.833C17.8053 35.833 15.7427 35.4163 13.812 34.583C11.882 33.7497 10.2087 32.6247 8.79199 31.208C7.37533 29.7913 6.25033 28.118 5.41699 26.188C4.58366 24.2573 4.16699 22.1947 4.16699 20C4.16699 17.8053 4.58366 15.743 5.41699 13.813C6.25033 11.8823 7.37533 10.2087 8.79199 8.79199C10.2087 7.37533 11.882 6.25033 13.812 5.41699C15.7427 4.58366 17.8053 4.16699 20 4.16699C22.1947 4.16699 24.2573 4.58366 26.188 5.41699C28.118 6.25033 29.7913 7.37533 31.208 8.79199C32.6247 10.2087 33.7497 11.8823 34.583 13.813C35.4163 15.743 35.833 17.8053 35.833 20C35.833 22.1947 35.4163 24.2573 34.583 26.188C33.7497 28.118 32.6247 29.7913 31.208 31.208C29.7913 32.6247 28.118 33.7497 26.188 34.583C24.2573 35.4163 22.1947 35.833 20 35.833ZM20 33.75C23.8333 33.75 27.0833 32.4167 29.75 29.75C32.4167 27.0833 33.75 23.8333 33.75 20C33.75 16.1667 32.4167 12.9167 29.75 10.25C27.0833 7.58333 23.8333 6.24999 20 6.24999C16.1667 6.24999 12.9167 7.58333 10.25 10.25C7.58333 12.9167 6.24999 16.1667 6.24999 20C6.24999 23.8333 7.58333 27.0833 10.25 29.75C12.9167 32.4167 16.1667 33.75 20 33.75Z" fill="white"/>
</g>
</svg>
