<svg width="20" height="20" viewBox="0 0 20 20" fill="none" xmlns="http://www.w3.org/2000/svg">
<path d="M10.0003 10C12.6305 10 14.7622 7.76172 14.7622 5C14.7622 2.23828 12.6305 0 10.0003 0C7.37012 0 5.23842 2.23828 5.23842 5C5.23842 7.76172 7.37012 10 10.0003 10ZM13.3337 11.25H12.7124C11.8865 11.6484 10.9676 11.875 10.0003 11.875C9.03306 11.875 8.11789 11.6484 7.28827 11.25H6.66699C3.90658 11.25 1.66699 13.6016 1.66699 16.5V18.125C1.66699 19.1602 2.46684 20 3.45271 20H16.5479C17.5338 20 18.3337 19.1602 18.3337 18.125V16.5C18.3337 13.6016 16.0941 11.25 13.3337 11.25Z" fill="#929292"/>
</svg>
