<svg width="25" height="25" viewBox="0 0 25 25" fill="none" xmlns="http://www.w3.org/2000/svg">
<path d="M16.4635 0H14.8629V22.4121C14.8629 23.1608 15.2567 23.7793 16.0443 24.2676C16.8319 24.7559 17.7847 25 18.9025 25C20.0204 25 20.9732 24.7559 21.7608 24.2676C22.5484 23.7793 22.9422 23.1608 22.9422 22.4121V13.7695C24.0601 13.151 24.619 12.3861 24.619 11.4746V5.22461C24.619 3.75977 23.8314 2.52279 22.2562 1.51367C20.681 0.504557 18.7501 0 16.4635 0ZM19.741 22.4121C19.741 22.7376 19.4615 22.9004 18.9025 22.9004C18.3436 22.9004 18.0641 22.7376 18.0641 22.4121V14.5996H19.741V22.4121ZM21.3416 11.4746C21.3416 11.7676 21.1891 12.0117 20.8842 12.207C20.5794 12.4023 20.1983 12.5 19.741 12.5H18.0641V2.29492C19.0296 2.49023 19.8172 2.85645 20.4269 3.39355C21.0367 3.93066 21.3416 4.54102 21.3416 5.22461V11.4746ZM0.22876 14.0625V22.4121C0.22876 23.1608 0.622561 23.7793 1.41016 24.2676C2.19776 24.7559 3.15051 25 4.26839 25C5.38628 25 6.33902 24.7559 7.12663 24.2676C7.91423 23.7793 8.30803 23.1608 8.30803 22.4121V14.0625C8.30803 13.3464 7.91423 12.736 7.12663 12.2314C6.33902 11.7269 5.38628 11.4746 4.26839 11.4746C3.15051 11.4746 2.19776 11.7269 1.41016 12.2314C0.622561 12.736 0.22876 13.3464 0.22876 14.0625ZM3.42998 14.0625C3.42998 13.7044 3.70945 13.5254 4.26839 13.5254C4.82734 13.5254 5.10681 13.7044 5.10681 14.0625V22.4121C5.10681 22.7376 4.82734 22.9004 4.26839 22.9004C3.70945 22.9004 3.42998 22.7376 3.42998 22.4121V14.0625ZM6.70742 7.27539H5.10681V0H3.42998V7.27539H1.82937V0H0.22876V8.34961H3.42998V11.4746H5.10681V8.34961H8.30803V0H6.70742V7.27539Z" fill="#F8F8F8"/>
</svg>
