<?xml version="1.0" encoding="UTF-8"?><svg id="Layer_2" xmlns="http://www.w3.org/2000/svg" viewBox="0 0 129.75 130.85"><defs><style>.cls-1{fill:#ffe977;}.cls-1,.cls-2,.cls-3{fill-rule:evenodd;}.cls-2{fill:#8e2812;}.cls-3{fill:#d75d1a;}</style></defs><g id="Layer_1-2"><g><path class="cls-3" d="M46.92,43.82c-.7-4.38-1.2-8.63,4.16-8.78,.62-3.35,1.08-6.64-3.15-7.88-3.45,2.44-6.08,1.99-8.33,.22-8.06-.67-10.28-4.2-6.64-10.58-4.82-7.52-2.26-9.76,1.35-11.25,3.98-6.88,9.38-6.99,15.75-2.48,7.34-4.91,12.62,.68,17.55,8.1,5.6,7.15-.99,11.31-10.13,14.85-4.39,1.58-2.05,5.65,1.69,10.24,3.86-2.49,7.73-.96,11.59-.45,5.27-.58,6.82-4.88,8.44-9.11-6.86-1.97-6.72-4.97-3.38-8.44,2.74-10.03,7.98-11.61,14.63-8.44,8.91-3.7,10.96,2.87,12.04,10.91,3.56,6.38,1.35,10.28-3.49,13.05-.43,5.13-3.36,6.16-7.99,4.39-4.62,.83-6.08-1.76-7.09-4.84-5.52,.51-8.24,2.72-6.86,7.43,7.41,1.37,8.42,6.66,6.53,13.73,9.59-1.25,11.52,1.25,8.21,6.3-3.71,3.9-3.68,6.75,.11,8.55,4.59,3.91,9.98,10.94,11.36,2.36,6.36-2.34,9.85-5.01,5.4-8.55-5.87-6.42-9.83-12.31-.34-14.51,8.92-1.94,18.69-5.67,17.78,13.28,5.03,3.97,5.18,9.27-1.8,16.54,2.12,6.72,2.77,12.65-6.86,13.05-1.67,6.08-4.63,9.03-9.9,6.41-4.24-1.62-9.07-2.77-3.83-12.04-1.59-5.39-4.37-9.33-11.36-8.1-4.73,.77-9.94,2.86-6.86,10.35,2.8,5.66,1.26,8.85-2.25,10.91-8,2.44-5.44-10.65-12.26-6.41-4.61,2.88-9.23,3.2-13.84-.23-5.35,3.41-3.58,6.83-.79,10.24,4.88,3.69,11.69,6.98,8.89,12.26,5.25,6.7,1.86,8.67-2.25,10.24-5.53,4.98-11.05,9.52-15.98,.56-11.88,3.61-23.56,6.7-28.47-8.78-8.1-4.73-11.52-10.01-4.61-16.54-4.01-5.77-7.68-11.53-.79-16.99,6.45-4.91,11.4-3.08,14.85,5.51,3.64-2.21,7.28-4.43,10.91-6.64-10-5.55-12.92-12.04-7.31-19.69-2.59-4.61-5.03-5.48-7.31-2.59-.68,7.65-3.45,10.05-8.33,7.2-10.55,4.13-17.28,3.67-14.63-8.1,.17-3.94-5.67-8.91,5.74-10.91,5.05-5.68,10.16-10.95,17.33-3.6,4.54,3,4.54,6.83,2.48,11.03,1.89,1.74,4.44,2.27,8.44,.11-1.29-3.45-1.18-6.15,2.03-7.2,.46-4.27-1.77-7.58-5.51-10.35-4.8,1.99-7.8,1.13-9-2.59-2.68-3.98-4.08-7.47,3.49-7.54,6.73-1.44,8.72,1.14,8.55,5.4-.8,9.66,6.52,9.43,12.04,10.35Z"/><path class="cls-2" d="M38.93,82.31c-2.26-1.26-4.17-2.56-5.69-3.92,2.52-.1,4.02-1.28,5.08-2.93,2.48-6.42,5.59-6.98,8.7-7.63-3.2,1.88-4.98,5.19-5.34,9.92-.2,2.8-1.51,3.62-2.75,4.56Z"/><path class="cls-2" d="M63.01,125.17c-5.53,4.98-11.05,9.52-15.98,.56-11.88,3.61-23.56,6.7-28.47-8.78-4.17-2.43-7.09-5.01-8.02-7.83,3.03,2.85,6.32,4.09,9.93,3.25-2.27-4.02-2.31-7.7,.92-10.91-.21,10.44,3.94,12.97,9.23,13.43,6.42,1.31,10.5-3.6,13.73-10.76,.94,7.48-2.19,11.9-9.38,13.27-3.94,5.54-.25,6.81,11.06,3.81,6.68,6.42,11.93,5.69,16.98,3.94Z"/><path class="cls-2" d="M85.94,89.09c2.18,5.09,.63,8.03-2.68,9.98-8,2.44-5.44-10.65-12.26-6.41-3.82,2.38-7.63,3.01-11.45,1.22,5.66,.12,9.02-2.18,10.82-6.14,1.54,2.35,4.03,1.67,6.79,.15,2.88-2.09,.98-6.76-1.07-11.52,2.42,2.75,4.73,5.82,5.72,12.66,.79,5.21,2.45,3.54,4.13,.05Z"/><path class="cls-2" d="M125.63,84.82c.09,3.75-1.78,6.45-8.17,6.71-1.67,6.08-4.63,9.03-9.9,6.41-4.24-1.62-9.07-2.77-3.83-12.04-.83-2.8-1.97-5.21-3.87-6.7h0c5.63,2.02,6.93,6.29,6.66,11.36,1.26,2.98,3.22,.92,5.49-3.43,1.27,.05,1.73,1.73,1.37,5.03,.86,.65,1.73,.6,2.59-2.82,5.66,.04,8.05-1.99,9.65-4.52Z"/><path class="cls-2" d="M99.01,33.81c-.43,5.13-3.36,6.16-7.99,4.39-4.62,.83-6.08-1.76-7.09-4.84-3.76,.35-6.23,1.48-6.98,3.66h0c-.15-2.86,.65-5.43,8.05-6.04,2.05,3.31,4.23,3.26,6.48,1.68,3.02,2.17,5.32,1.84,7.52,1.15Z"/><path class="cls-2" d="M47.93,27.17c-3.45,2.44-6.08,1.99-8.33,.22-1.9-.16-3.47-.48-4.72-.95,2.19,.32,4.38,.56,6.57-1.79,1.4,2.26,4.53,1.88,9.38-1.14,5.65-.03,8.28-1.88,8.85-4.96,4.41,1.54,7.1-1.21,9.23-5.35,3,5.95-3.18,9.66-11.42,12.85-.47,.17-.86,.37-1.18,.59l-1.74-.84c-3.02-1.49-5.05-.6-6.64,1.38Z"/><path class="cls-1" d="M77.07,40.79c7.41,1.37,8.42,6.66,6.53,13.73,8.64-1.12,11.07,.79,9.04,4.88l-.83,1.42c-.65-4.07-4.07-4.27-9.39-1.83-5-.86-6.22,2.07-7.32,5.11,.02-3.65-.79-7.57,4.5-9.54,2.84-4.2,2.94-7.25-2.98-7.78,.58-2.96-.13-5.26-7.09-4.35,2.29-1.92,4.85-2.16,7.55-1.64Z"/><path class="cls-1" d="M46.92,43.82c-.7-4.38-1.2-8.63,4.16-8.78,2,0,2.55-2.06,2.12-5.51,1.69,4.24,3.61,6.12,5.7,6.41l.28,.34c3.86-2.49,7.73-.96,11.59-.45l.12-.02c-2.08,1.43-5.32,2.12-9.45,2.26-3.3-.04-3.15,3.12-2.29,6.94-2.28-.44-4.46-2.37-6.48-7.25-2.43,.31-4.05,1.99-3.43,7.48-3.74,.9-3.2,2.96-2.06,5.19-2.63-2.11-5.05-2.88-6.87,.08-2.37,3.34-1.35,4.64,.15,5.65,2.83,2.56,6.9-.95,12.83-5.63,6.33-4.94,13.83-3.49,15.45,3.76,.84,3.98-.89,6.1-3.63,6.22,1.77-.85,2.66-2.27,2.29-4.5-1.98-8.31-10.41-6.46-13.12-3.66-.93,5.89-4.64,8.69-11.14,8.39-4.67-1.03-7.62,.16-8.85,3.59-3.11,1.3-4.42,4.09-5.35,7.21-.5-2.79,.36-5.76,2.68-8.92,.08-1.19,.15-2.37,.23-3.56,2.44-.56,2.99-1.92,3.49-3.31-1.29-3.45-1.18-6.15,2.03-7.2,.76-.66,1.51-1.38,1.66-3.99,2.37,1.85,5.03,1.36,7.9-.74Z"/><path class="cls-2" d="M57.16,92.43c-5.35,3.41-3.58,6.83-.79,10.24,4.88,3.69,11.69,6.98,8.89,12.26,3.95,5.05,3.01,7.41,.55,8.94-.11-3.38-.96-6.56-4.06-9.13,.98-4.57-.78-8.17-8.54-9.69-3.13-5.28-3.09-9.79,3.95-12.63Z"/><path class="cls-1" d="M13.95,100.42c-4.01-5.77-7.68-11.53-.79-16.99,6.45-4.91,11.4-3.08,14.85,5.51,3.64-2.21,7.28-4.43,10.91-6.64-3.35,3.69-6.71,7.39-10.06,11.08-2.78-2.91-5.46-6.18-9.69-3.28-7.88-1.7-6.27,4.54-5.23,10.31Z"/><path class="cls-1" d="M.92,65.42c-.29-1.58-.16-3.65,.43-6.29,.17-3.94-5.67-8.91,5.74-10.91,5.05-5.68,10.16-10.95,17.33-3.6,4.54,3,4.54,6.83,2.48,11.03,.46-4.16-.15-7.75-4.35-9.47-3.37-2.81-6.29-2.23-8.85,1.14,4.15,.72,6.11,2.62,6.71,5.26,.74,7.35-5.87,8.31-11.83,6.49-3.94-1.84-2.28-5.21,1.22-5.19-1.85,1.3-1.77,2.34,.23,3.13,4.04,1.67,8.05-1.14,7.09-3.74-.84-3.01-4.92-4.11-9.46-2.36-4.75,.83-5.83,3.89-3.89,8.77l-2.85,5.75Z"/><path class="cls-1" d="M20.73,31.25c-.25-1.87,1.06-3.14,5.6-3.18,5.87-1.26,8.13,.55,8.5,3.85-2.64-1.45-5.32-2.16-8.1,.37-2-1.03-4-1.28-6-1.05Z"/><path class="cls-1" d="M91.77,69.29l.15,.07c4.59,3.91,9.98,10.94,11.36,2.36,3.43-1.26,6.02-2.62,6.99-4.15,1.48,1.52,1.33,3.99-1.23,7.88-1.55-3.05-4.47-1.16-7.55,1.3-1.34,1.72-5.5-1.16-9.61-3.97,.31-1.26,.22-2.41-.11-3.5h0Zm13.56-10.08c-3.59-4.78-4.46-8.81,3.02-10.55,8.92-1.94,18.69-5.67,17.78,13.28,5.03,3.97,5.18,9.27-1.8,16.54,1.76-6.07,4.44-12.5-2.17-15.23-.21-7.74-.6-14.97-6.56-6.48-7.08-4.46-9.28-3.8-4.35,4.35-3.17-1.43-4.99-1.97-5.92-1.91Z"/><path class="cls-1" d="M75.83,18.28c2.74-10.03,7.98-11.61,14.63-8.44,8.91-3.7,10.96,2.87,12.04,10.91,2.12,3.79,2.2,6.7,.9,9.02l-.42,.66h0c-.57-3.74-2.88-3.93-5.98-2.51,.46-5.06-.7-8.19-6.33-5.95,2.15-3.83,1.52-6.39-.99-8.09-5.67-2.9-10.29-1.43-13.83,4.39Z"/><path class="cls-1" d="M32.96,16.82c-4.82-7.52-2.26-9.76,1.35-11.25,3.98-6.88,9.38-6.99,15.75-2.48,7.54,.28,12.86,3.75,17.55,8.1C62.69,3.77,57.4-1.82,50.07,3.09c-4.98-1.48-8.29-.51-10.22,2.49,4.32-.94,7.43-.25,9.31,2.06-6.87,1.1-8.34,5.28-8.09,10.45-1.96-1.02-3.38-2.89-2.9-7.78-4.67-.64-5.23,2.66-5.21,6.51Z"/><path class="cls-1" d="M71.66,68.29c-4.13-1.64-7.95-1.44-11.06,2.82-6.17-.29-8.86,2.88-10.15,7.48,.8,8.21-5.46,14.52-10.3,21.21,3.38-6.75,7.57-12.91,7.7-22.05,1.75-4.58,3.4-9.24,11.75-9.08,4.63-5.03,8.45-3.61,12.05-.38Z"/><path class="cls-2" d="M89.06,65.69c-6.2-.49-9.42,3.35-10.71,6.34h0c3.07-3.08,7.71-3.74,13.43-2.75-1.42-.83-1.29-2.77-2.71-3.6Z"/></g></g></svg>