<?xml version="1.0" encoding="UTF-8"?><svg xmlns="http://www.w3.org/2000/svg" xmlns:xlink="http://www.w3.org/1999/xlink" viewBox="0 0 270.45 341.04"><defs><style>.cls-1{fill:#6a6a6a;}.cls-2{fill:url(#linear-gradient-2);}.cls-3{fill:url(#radial-gradient-7);}.cls-4{fill:url(#radial-gradient-10);}.cls-5,.cls-6{fill:#fff;}.cls-7{fill:url(#radial-gradient-8);}.cls-8{fill:url(#linear-gradient-6);}.cls-9{fill:url(#radial-gradient-5);}.cls-10{fill:url(#radial-gradient-4);}.cls-11{isolation:isolate;}.cls-12{fill:url(#radial-gradient-6);}.cls-13{fill:url(#linear-gradient-10);}.cls-6{mix-blend-mode:soft-light;}.cls-14{fill:url(#radial-gradient);}.cls-15{fill:url(#linear-gradient-5);}.cls-16{opacity:.1;}.cls-17{fill:url(#radial-gradient-2);}.cls-18{fill:url(#radial-gradient-3);}.cls-19{fill:url(#linear-gradient-7);}.cls-20{fill:url(#linear-gradient-9);}.cls-21{fill:url(#linear-gradient-3);}.cls-22{fill:url(#linear-gradient);}.cls-23{fill:#060606;opacity:.3;}.cls-24{fill:#3a3e47;}.cls-25{fill:url(#linear-gradient-4);}.cls-26{fill:url(#radial-gradient-9);}.cls-27{fill:url(#linear-gradient-8);}</style><linearGradient id="linear-gradient" x1="7.08" y1="62.16" x2="232.41" y2="224.16" gradientUnits="userSpaceOnUse"><stop offset="0" stop-color="#f5f6f8"/><stop offset=".39" stop-color="#888c95"/><stop offset=".53" stop-color="#999ca3"/><stop offset=".76" stop-color="#c0c1c3"/><stop offset="1" stop-color="#454a55"/></linearGradient><linearGradient id="linear-gradient-2" x1="281.71" y1="78.27" x2="158" y2="344.2" gradientUnits="userSpaceOnUse"><stop offset="0" stop-color="#c8c9ca"/><stop offset=".03" stop-color="#c0c1c2"/><stop offset=".27" stop-color="#8e9093"/><stop offset=".49" stop-color="#676a6e"/><stop offset=".69" stop-color="#4b4f53"/><stop offset=".87" stop-color="#3a3e43"/><stop offset="1" stop-color="#35393e"/></linearGradient><linearGradient id="linear-gradient-3" x1="-20.51" y1="69.3" x2="123.19" y2="350.78" gradientUnits="userSpaceOnUse"><stop offset="0" stop-color="#e4e5e6"/><stop offset=".16" stop-color="#dfe1e2"/><stop offset=".32" stop-color="#d3d5d6"/><stop offset=".48" stop-color="#bfc1c3"/><stop offset=".64" stop-color="#a2a5a9"/><stop offset=".8" stop-color="#7e8186"/><stop offset=".96" stop-color="#51555d"/><stop offset="1" stop-color="#474b53"/></linearGradient><linearGradient id="linear-gradient-4" x1="138.6" y1="8.24" x2="260.82" y2="65.27" gradientUnits="userSpaceOnUse"><stop offset="0" stop-color="#35393e"/><stop offset="1" stop-color="#c8c9ca"/></linearGradient><linearGradient id="linear-gradient-5" x1=".01" y1="63.04" x2="300.75" y2="-50.3" gradientUnits="userSpaceOnUse"><stop offset="0" stop-color="#c8c9ca"/><stop offset=".04" stop-color="#eaecee"/><stop offset="1" stop-color="#474b53"/></linearGradient><linearGradient id="linear-gradient-6" x1="33.88" y1="88.41" x2="212.55" y2="214.41" gradientUnits="userSpaceOnUse"><stop offset="0" stop-color="#f5f6f8"/><stop offset="1" stop-color="#3a3e47"/></linearGradient><linearGradient id="linear-gradient-7" x1="112.71" y1="33.99" x2="239.51" y2="90.22" gradientUnits="userSpaceOnUse"><stop offset="0" stop-color="#3a3e47"/><stop offset="1" stop-color="#f5f6f8"/></linearGradient><linearGradient id="linear-gradient-8" x1="251.48" y1="90.21" x2="144.81" y2="322.06" xlink:href="#linear-gradient-6"/><linearGradient id="linear-gradient-9" x1="31.29" y1="63.68" x2="135.23" y2="63.68" xlink:href="#linear-gradient-6"/><linearGradient id="linear-gradient-10" x1="31.29" y1="195.71" x2="135.23" y2="195.71" xlink:href="#linear-gradient-6"/><radialGradient id="radial-gradient" cx="134.2" cy="25.36" fx="134.2" fy="25.36" r="4.72" gradientUnits="userSpaceOnUse"><stop offset="0" stop-color="#e0e3e3"/><stop offset=".13" stop-color="#d2d4d6"/><stop offset=".37" stop-color="#adafb3"/><stop offset=".7" stop-color="#72737d"/><stop offset="1" stop-color="#383847"/></radialGradient><radialGradient id="radial-gradient-2" cy="320.25" fy="320.25" xlink:href="#radial-gradient"/><radialGradient id="radial-gradient-3" cx="185.34" cy="53.3" fx="185.34" fy="53.3" r="4.72" xlink:href="#radial-gradient"/><radialGradient id="radial-gradient-4" cx="327.72" cy="52.62" fx="327.72" fy="52.62" r="4.72" gradientTransform="translate(410.83) rotate(-180) scale(1 -1)" xlink:href="#radial-gradient"/><radialGradient id="radial-gradient-5" cx="247.3" cy="72.63" fx="247.3" fy="72.63" r="4.72" xlink:href="#radial-gradient"/><radialGradient id="radial-gradient-6" cx="390.02" cy="72.24" fx="390.02" fy="72.24" r="4.72" gradientTransform="translate(410.83) rotate(-180) scale(1 -1)" xlink:href="#radial-gradient"/><radialGradient id="radial-gradient-7" cx="239.3" cy="169.25" fx="239.3" fy="169.25" r="4.72" xlink:href="#radial-gradient"/><radialGradient id="radial-gradient-8" cx="381.63" cy="168.48" fx="381.63" fy="168.48" r="4.72" gradientTransform="translate(410.83) rotate(-180) scale(1 -1)" xlink:href="#radial-gradient"/><radialGradient id="radial-gradient-9" cx="203.56" cy="252.25" fx="203.56" fy="252.25" r="4.72" xlink:href="#radial-gradient"/><radialGradient id="radial-gradient-10" cx="345.37" cy="251.86" fx="345.37" fy="251.86" r="4.72" gradientTransform="translate(410.83) rotate(-180) scale(1 -1)" xlink:href="#radial-gradient"/></defs><g class="cls-11"><g id="Layer_2"><g id="Layer_1-2"><g><path class="cls-1" d="M135.22,341.04l-3.99-1.55c-1.38-.54-34.17-13.59-66.71-54.21-18.84-23.51-33.83-51.55-44.54-83.34C6.72,162.59,0,117.35,0,67.46v-10.05l10.01-.91c.68-.06,69.03-6.86,117.93-50.07l7.28-6.44,7.28,6.44c49.06,43.35,117.25,50,117.93,50.07l10.01,.91v10.05c0,49.89-6.72,95.14-19.99,134.48-10.72,31.79-25.7,59.83-44.54,83.34-32.54,40.61-65.33,53.67-66.71,54.21l-3.99,1.55ZM2,59.24v8.22c0,49.67,6.69,94.7,19.88,133.84,10.64,31.57,25.51,59.4,44.21,82.73,32.21,40.2,64.51,53.07,65.87,53.59l3.26,1.27,3.26-1.27c1.36-.53,33.67-13.4,65.87-53.59,18.69-23.33,33.57-51.17,44.21-82.73,13.19-39.14,19.88-84.17,19.88-133.84v-8.22l-8.19-.74c-.69-.06-69.53-6.78-119.08-50.56l-5.96-5.27-5.96,5.27C79.88,51.57,10.88,58.43,10.19,58.49l-8.19,.74Z"/><path class="cls-22" d="M133.41,333.89c-1.32-.51-32.67-13.01-64.2-52.37-18.4-22.96-33.05-50.39-43.54-81.51C12.62,161.29,6,116.69,6,67.46v-4.57l4.55-.41c.7-.06,70.91-6.96,121.36-51.54l3.31-2.93,3.31,2.93c50.54,44.66,120.66,51.48,121.36,51.54l4.55,.41v4.57c0,49.24-6.62,93.84-19.67,132.56-10.49,31.12-25.14,58.55-43.54,81.51-31.53,39.35-62.88,51.85-64.2,52.37l-1.81,.7-1.81-.7Z"/><path class="cls-2" d="M264.45,62.89h0v4.57c0,49.24-6.62,93.84-19.67,132.56-10.49,31.12-25.14,58.55-43.54,81.51-31.53,39.35-62.88,51.85-64.2,52.37l-1.81,.7v5.37l3.62-1.41c1.37-.53,33.93-13.51,66.29-53.9,18.77-23.42,33.7-51.36,44.37-83.04,13.23-39.24,19.93-84.38,19.93-134.16v-9.13l-5,4.57Z"/><path class="cls-21" d="M69.21,281.53c-18.4-22.96-33.05-50.39-43.54-81.51C12.62,161.29,6,116.69,6,67.46v-4.57h0L1,58.32v9.13c0,49.78,6.71,94.92,19.93,134.16,10.68,31.68,25.61,59.62,44.37,83.04,32.36,40.39,64.92,53.37,66.29,53.9l3.62,1.41v-5.37l-1.81-.7c-1.32-.51-32.67-13.01-64.2-52.37Z"/><path class="cls-25" d="M259.9,62.48l4.55,.41,5-4.57-9.1-.82c-.69-.06-69.18-6.73-118.5-50.31l-6.62-5.85v6.67l3.31,2.93c50.54,44.66,120.66,51.48,121.36,51.54Z"/><path class="cls-15" d="M10.55,62.48c.7-.06,70.91-6.96,121.36-51.54l3.31-2.93V1.33l-6.62,5.85C79.44,50.62,10.77,57.43,10.1,57.5l-9.1,.82,5,4.57,4.55-.41Z"/><g><path class="cls-8" d="M135.23,44.1c36.7,26.6,77.87,38.17,100.84,42.88-1.47,37.64-7.25,72.02-17.2,102.22-9.17,27.83-21.91,52.32-37.86,72.76-17.79,22.82-35.79,35.52-45.78,41.44-10-5.92-28-18.62-45.79-41.44-15.95-20.44-28.69-44.93-37.86-72.76-9.95-30.2-15.73-64.58-17.2-102.22,22.97-4.71,64.14-16.28,100.85-42.88Z"/><path class="cls-24" d="M135.23,45.95c36.47,26.15,77.31,37.62,99.29,42.24-1.54,37.02-7.29,70.84-17.07,100.54-9.12,27.68-21.78,52.01-37.62,72.31-17.41,22.33-35.12,34.9-44.6,40.61-9.47-5.71-27.19-18.27-44.61-40.61-15.84-20.3-28.5-44.63-37.62-72.31-9.79-29.7-15.53-63.52-17.07-100.54,21.98-4.62,62.81-16.09,99.3-42.24h0Zm0-1.85c-36.71,26.6-77.88,38.17-100.85,42.88,1.47,37.64,7.25,72.02,17.2,102.22,9.17,27.83,21.91,52.32,37.86,72.76,17.79,22.82,35.79,35.52,45.79,41.44,9.99-5.92,27.99-18.62,45.78-41.44,15.95-20.44,28.69-44.93,37.86-72.76,9.95-30.2,15.73-64.58,17.2-102.22-22.97-4.71-64.14-16.28-100.84-42.88h0Z"/></g><path class="cls-23" d="M132.47,46.06c30.1,26.52,64.54,42.04,87.94,50.33,5.2,1.85,8.85,7.61,7.96,13.06-5.69,34.5-14.76,65.77-27.02,93.08-12.37,27.55-28.05,51.3-46.59,70.55-10.03,10.43-19.86,18.41-28.56,24.44,3.44,2.43,6.49,4.38,9.03,5.88,9.99-5.92,27.99-18.62,45.78-41.44,15.95-20.44,28.69-44.93,37.86-72.76,9.95-30.2,15.73-64.58,17.2-102.22-22.97-4.71-64.14-16.28-100.84-42.88-.92,.66-1.84,1.31-2.76,1.96Z"/><path class="cls-23" d="M135.23,44.1c-36.71,26.6-77.88,38.17-100.85,42.88,1.47,37.64,7.25,72.02,17.2,102.22,9.17,27.83,21.91,52.32,37.86,72.76,17.79,22.82,35.79,35.52,45.79,41.44,9.99-5.92,27.99-18.62,45.78-41.44,15.95-20.44,28.69-44.93,37.86-72.76,9.95-30.2,15.73-64.58,17.2-102.22-22.97-4.71-64.14-16.28-100.84-42.88Zm81.74,144.47c-9.1,27.62-21.73,51.9-37.54,72.16-17.2,22.07-34.7,34.57-44.2,40.34-9.5-5.76-27-18.25-44.21-40.34-15.81-20.26-28.44-44.53-37.54-72.16-9.73-29.55-15.46-63.18-17.03-99.98,22.06-4.67,62.53-16.14,98.78-42.03,36.24,25.89,76.72,37.36,98.77,42.03-1.57,36.8-7.3,70.44-17.03,99.98Z"/><path class="cls-19" d="M135.23,40.38c37.6,27.87,80.17,39.52,103.93,44.16l-3.09,2.44c-22.97-4.71-64.14-16.28-100.84-42.88v-3.72Z"/><path class="cls-27" d="M181.01,261.96c15.95-20.44,28.69-44.93,37.86-72.76,9.95-30.2,15.73-64.58,17.2-102.22l3.09-2.44c-1.31,38.94-7.16,74.4-17.44,105.6-9.28,28.16-22.18,52.95-38.34,73.67-18.91,24.24-38.02,37.27-48.15,43.06v-3.47c9.99-5.92,27.99-18.62,45.78-41.44Z"/><path class="cls-20" d="M135.23,40.38v3.72c-36.71,26.6-77.88,38.17-100.85,42.88l-3.09-2.44c23.76-4.64,66.33-16.29,103.94-44.16Z"/><path class="cls-13" d="M135.23,303.4v3.47c-10.14-5.79-29.25-18.82-48.16-43.06-16.16-20.72-29.06-45.51-38.34-73.67-5.14-15.6-9.17-32.27-12.08-49.9-2.91-17.63-4.71-36.23-5.36-55.7l3.09,2.44c1.47,37.64,7.25,72.02,17.2,102.22,9.17,27.83,21.91,52.32,37.86,72.76,17.79,22.82,35.79,35.52,45.79,41.44Z"/><circle class="cls-23" cx="136.22" cy="27.38" r="4"/><circle class="cls-14" cx="135.22" cy="26.38" r="4"/><path class="cls-23" d="M132.22,322.27c0-2.21,1.79-4,4-4s4,1.79,4,4-1.79,4-4,4-4-1.79-4-4Z"/><path class="cls-17" d="M131.22,321.27c0-2.21,1.79-4,4-4s4,1.79,4,4-1.79,4-4,4-4-1.79-4-4Z"/><path class="cls-23" d="M183.36,55.32c0-2.21,1.79-4,4-4s4,1.79,4,4-1.79,4-4,4-4-1.79-4-4Z"/><path class="cls-18" d="M182.36,54.32c0-2.21,1.79-4,4-4s4,1.79,4,4-1.79,4-4,4-4-1.79-4-4Z"/><path class="cls-23" d="M89.09,55.32c0-2.21-1.79-4-4-4s-4,1.79-4,4,1.79,4,4,4,4-1.79,4-4Z"/><path class="cls-10" d="M88.09,54.32c0-2.21-1.79-4-4-4s-4,1.79-4,4,1.79,4,4,4,4-1.79,4-4Z"/><path class="cls-23" d="M245.32,74.65c0-2.21,1.79-4,4-4s4,1.79,4,4-1.79,4-4,4-4-1.79-4-4Z"/><path class="cls-9" d="M244.32,73.65c0-2.21,1.79-4,4-4s4,1.79,4,4-1.79,4-4,4-4-1.79-4-4Z"/><path class="cls-23" d="M27.12,74.65c0-2.21-1.79-4-4-4s-4,1.79-4,4,1.79,4,4,4,4-1.79,4-4Z"/><path class="cls-12" d="M26.12,73.65c0-2.21-1.79-4-4-4s-4,1.79-4,4,1.79,4,4,4,4-1.79,4-4Z"/><path class="cls-23" d="M237.32,171.27c0-2.21,1.79-4,4-4s4,1.79,4,4-1.79,4-4,4-4-1.79-4-4Z"/><path class="cls-3" d="M236.32,170.27c0-2.21,1.79-4,4-4s4,1.79,4,4-1.79,4-4,4-4-1.79-4-4Z"/><path class="cls-23" d="M35.12,171.27c0-2.21-1.79-4-4-4s-4,1.79-4,4,1.79,4,4,4,4-1.79,4-4Z"/><path class="cls-7" d="M34.12,170.27c0-2.21-1.79-4-4-4s-4,1.79-4,4,1.79,4,4,4,4-1.79,4-4Z"/><path class="cls-23" d="M201.58,254.27c0-2.21,1.79-4,4-4s4,1.79,4,4-1.79,4-4,4-4-1.79-4-4Z"/><path class="cls-26" d="M200.58,253.27c0-2.21,1.79-4,4-4s4,1.79,4,4-1.79,4-4,4-4-1.79-4-4Z"/><path class="cls-23" d="M70.87,254.27c0-2.21-1.79-4-4-4s-4,1.79-4,4,1.79,4,4,4,4-1.79,4-4Z"/><path class="cls-4" d="M69.87,253.27c0-2.21-1.79-4-4-4s-4,1.79-4,4,1.79,4,4,4,4-1.79,4-4Z"/><g class="cls-16"><path class="cls-5" d="M180.35,69.5c.1,.73,.21,1.48,.32,2.25,.34,2.37,.7,4.94,1.09,7.69,.18,1.37,.43,2.79,.58,4.26,.16,1.47,.32,2.97,.48,4.52,.33,3.1,.67,6.36,1.03,9.76,.48,6.82,1.14,14.23,1.35,22.1,.08,1.97,.16,3.96,.24,5.98,.02,2.02,.03,4.07,.05,6.14,.02,2.07,.04,4.17,.05,6.28,.02,2.12-.08,4.25-.11,6.4-.1,4.31-.16,8.7-.45,13.14-.12,2.22-.24,4.46-.36,6.7-.1,2.25-.35,4.5-.51,6.76-.19,2.27-.37,4.54-.56,6.83-.21,2.28-.5,4.56-.74,6.85-.26,2.29-.5,4.59-.78,6.89l-.96,6.88c-1.26,9.2-2.94,18.34-4.72,27.34-1.92,8.96-3.92,17.79-6.25,26.24-2.23,8.49-4.75,16.59-7.23,24.27-.89,2.66-1.78,5.27-2.68,7.81,5.81-5.33,11.98-11.74,18.19-19.35,1.25-2.83,2.49-5.7,3.7-8.64,3.51-8.3,6.76-17.04,9.95-26,3.05-8.99,6.04-18.19,8.61-27.53l1.94-7c.61-2.34,1.17-4.7,1.76-7.04,.57-2.35,1.18-4.69,1.72-7.03,.51-2.35,1.02-4.7,1.53-7.04,.49-2.34,1.06-4.67,1.48-7,.44-2.33,.87-4.66,1.31-6.97,.92-4.62,1.6-9.21,2.3-13.74,.34-2.26,.74-4.5,1.01-6.74,.28-2.23,.55-4.45,.83-6.64,.27-2.19,.54-4.36,.81-6.51,.2-2.15,.4-4.27,.59-6.37,.88-8.39,1.25-16.35,1.69-23.72,.13-3.68,.2-7.22,.29-10.59,.03-1.39,.07-2.73,.1-4.06-11.13-3.05-24.06-7.29-37.64-13.15Z"/><path class="cls-5" d="M108.02,282.51c-.65-1.88-1.3-3.79-1.95-5.73-2.48-7.68-5-15.78-7.23-24.27-2.32-8.45-4.33-17.28-6.25-26.24-1.78-9-3.46-18.14-4.72-27.34l-.96-6.88c-.29-2.3-.52-4.6-.78-6.89-.25-2.29-.53-4.57-.74-6.85-.19-2.28-.38-4.56-.56-6.83-.17-2.27-.42-4.51-.51-6.76-.12-2.25-.24-4.48-.36-6.7-.29-4.43-.35-8.83-.45-13.14-.03-2.16-.13-4.29-.11-6.4,.02-2.11,.04-4.21,.05-6.28,.02-2.07,.03-4.11,.05-6.14,.08-2.02,.16-4.02,.24-5.98,.21-7.87,.86-15.28,1.35-22.1,.36-3.4,.7-6.66,1.03-9.76,.17-1.55,.33-3.05,.48-4.52,.15-1.46,.39-2.88,.58-4.26,.39-2.74,.76-5.31,1.09-7.69,.08-.53,.15-1.05,.22-1.57-13.6,5.76-26.5,9.92-37.53,12.87,.03,1.2,.06,2.41,.09,3.66,.09,3.37,.16,6.9,.29,10.59,.44,7.37,.81,15.34,1.69,23.72,.2,2.09,.39,4.22,.59,6.37,.27,2.14,.53,4.31,.81,6.51,.27,2.19,.55,4.4,.83,6.64,.27,2.23,.68,4.47,1.01,6.74,.71,4.52,1.38,9.12,2.3,13.74,.43,2.31,.87,4.63,1.31,6.97,.41,2.34,.99,4.66,1.48,7,.51,2.34,1.02,4.68,1.53,7.04,.54,2.35,1.15,4.69,1.72,7.03,.59,2.34,1.15,4.7,1.76,7.04l1.94,7c2.57,9.34,5.56,18.54,8.61,27.53,3.19,8.95,6.44,17.69,9.95,26,.61,1.5,1.24,2.96,1.87,4.43,.24,.31,.47,.62,.7,.92,6.29,8.07,12.6,14.87,18.58,20.55Z"/></g><path class="cls-6" d="M61.58,199.2c-9.06-27.51-14.67-58.48-16.7-92.23-.33-5.51,3.89-10.87,9.26-12.17,23.77-5.76,59.12-17.53,91.09-40.69,31.69,22.97,90.74,35.45,90.84,32.88-22.97-4.71-64.14-16.28-100.84-42.88-36.71,26.6-77.88,38.17-100.85,42.88,1.47,37.64,7.25,72.02,17.2,102.22,9.17,27.83,21.91,52.32,37.86,72.76,6.94,8.91,13.92,16.27,20.44,22.29-3.45-3.73-6.95-7.81-10.44-12.29-15.95-20.44-28.69-44.93-37.86-72.76Z"/></g></g></g></g></svg>