<svg width="11" height="21" viewBox="0 0 11 21" fill="none" xmlns="http://www.w3.org/2000/svg">
<path d="M5.5002 20.775C4.1002 20.775 2.90853 20.2833 1.9252 19.3C0.941862 18.3167 0.450195 17.125 0.450195 15.725V4.62501C0.450195 3.60835 0.808529 2.74168 1.5252 2.02501C2.24186 1.30835 3.10853 0.950012 4.1252 0.950012C5.1252 0.950012 5.98353 1.30835 6.7002 2.02501C7.41686 2.74168 7.7752 3.60835 7.7752 4.62501V14.625C7.7752 15.2583 7.55453 15.7917 7.1132 16.225C6.6712 16.6583 6.13353 16.875 5.5002 16.875C4.86686 16.875 4.3292 16.6583 3.8872 16.225C3.44586 15.7917 3.2252 15.2583 3.2252 14.625V4.62501H4.1252V14.625C4.1252 15.0083 4.2542 15.3333 4.5122 15.6C4.77086 15.8667 5.1002 16 5.5002 16C5.9002 16 6.22953 15.8667 6.4882 15.6C6.7462 15.3333 6.8752 15.0083 6.8752 14.625V4.62501C6.8752 3.84168 6.60853 3.18335 6.0752 2.65001C5.54186 2.11668 4.89186 1.85001 4.1252 1.85001C3.34186 1.85001 2.68353 2.11668 2.1502 2.65001C1.61686 3.18335 1.3502 3.84168 1.3502 4.62501V15.725C1.3502 16.875 1.7542 17.8543 2.5622 18.663C3.37086 19.471 4.3502 19.875 5.5002 19.875C6.6502 19.875 7.62953 19.471 8.4382 18.663C9.24619 17.8543 9.6502 16.875 9.6502 15.725V4.62501H10.5502V15.725C10.5502 17.125 10.0585 18.3167 9.0752 19.3C8.09186 20.2833 6.9002 20.775 5.5002 20.775Z" fill="#787878"/>
</svg>
